<?xml version="1.0" standalone="no"?>
<!DOCTYPE svg PUBLIC "-//W3C//DTD SVG 20010904//EN"
 "http://www.w3.org/TR/2001/REC-SVG-20010904/DTD/svg10.dtd">
<svg version="1.0" xmlns="http://www.w3.org/2000/svg"
 width="1280.000000pt" height="770.000000pt" viewBox="0 0 1280.000000 770.000000"
 preserveAspectRatio="xMidYMid meet">
<g transform="translate(0.000000,770.000000) scale(0.100000,-0.100000)"
fill="#000000" stroke="none">
<path d="M9997 7689 c-9 -6 -68 -22 -130 -35 -257 -58 -387 -126 -577 -300
l-75 -69 -279 -100 c-195 -70 -281 -106 -288 -119 -6 -11 -13 -57 -16 -103 -3
-46 -8 -85 -12 -88 -3 -2 -94 -23 -201 -46 -131 -28 -200 -48 -214 -61 -30
-28 -34 -151 -5 -196 11 -18 26 -35 34 -38 8 -3 107 15 221 40 114 25 218 46
231 46 17 0 25 -7 30 -25 8 -32 -16 -70 -62 -97 -39 -23 -44 -50 -13 -72 30
-20 49 -10 49 28 0 32 15 56 35 56 14 0 104 -153 155 -264 99 -217 171 -441
311 -973 87 -331 179 -644 229 -783 46 -126 60 -221 60 -420 0 -542 -218
-1039 -627 -1432 -137 -131 -278 -231 -428 -303 -616 -297 -1342 -330 -2245
-105 -350 87 -531 178 -687 345 -134 142 -191 279 -200 480 -7 148 11 260 68
429 103 308 323 649 596 923 151 150 158 155 181 112 43 -79 57 -94 91 -97 26
-3 40 3 62 24 39 37 37 53 -2 20 -38 -32 -59 -33 -87 -3 -20 22 -52 86 -52
106 0 15 90 81 110 81 18 0 50 -58 50 -90 0 -11 5 -20 10 -20 16 0 12 56 -7
96 -18 37 -18 37 7 52 54 35 110 99 110 127 0 42 -55 90 -126 111 -32 9 -62
22 -66 28 -9 13 -11 218 -2 240 5 14 34 16 214 16 237 0 244 2 275 85 26 67
17 243 -19 352 -29 91 -78 170 -117 192 -24 13 -36 11 -150 -22 -249 -74 -394
-92 -674 -84 -351 10 -565 67 -1082 287 -153 65 -192 86 -238 128 -30 28 -81
63 -113 79 -50 24 -69 28 -147 28 -80 0 -95 -3 -142 -29 -28 -15 -66 -43 -84
-62 l-32 -33 32 -63 c47 -94 118 -183 233 -294 200 -192 402 -299 584 -309 70
-4 73 -5 163 -73 178 -134 349 -199 554 -209 77 -4 117 -10 117 -17 0 -13
-165 -118 -255 -163 l-60 -30 -380 -13 c-209 -8 -409 -14 -445 -15 l-65 0 -5
40 c-4 32 -11 43 -34 54 -41 19 -180 26 -249 12 -64 -14 -79 -31 -75 -83 l3
-33 -135 -3 c-178 -4 -176 -4 -184 60 -4 29 -12 58 -18 66 -8 9 -8 20 1 39 8
18 14 125 18 322 5 258 4 298 -9 309 -12 9 -145 15 -544 22 -291 5 -621 12
-734 15 -168 5 -209 3 -225 -9 -19 -13 -19 -21 -7 -332 7 -184 16 -322 22
-328 15 -15 12 -36 -5 -36 -11 0 -15 -12 -15 -44 0 -52 -10 -61 -72 -69 -58
-8 -71 -3 -95 31 -16 25 -18 63 -23 452 l-5 425 -55 0 -55 0 0 -445 0 -445 25
-45 c19 -34 38 -52 79 -72 30 -16 64 -28 77 -28 37 0 46 -22 29 -69 -26 -75
-83 -174 -156 -271 -132 -176 -170 -213 -282 -275 -56 -32 -166 -100 -244
-151 l-142 -94 -228 0 -228 0 -258 -155 -259 -155 -72 0 -73 0 -7 -57 c-7 -63
-4 -70 39 -75 l30 -3 9 -192 9 -193 103 0 c56 0 105 -4 108 -9 3 -4 -17 -46
-45 -92 -191 -315 -324 -653 -384 -979 -9 -47 -21 -100 -27 -118 -9 -31 -7
-36 18 -63 50 -52 98 -59 394 -59 l266 0 44 -46 c55 -57 110 -83 172 -84 46 0
78 -18 78 -44 0 -7 18 -49 39 -93 27 -55 43 -106 51 -160 123 -854 954 -1428
1800 -1244 609 133 1072 634 1159 1256 11 74 26 95 68 95 38 0 93 32 100 59 8
32 -33 69 -87 77 -60 10 -68 20 -72 99 l-3 70 200 3 c110 1 210 0 221 -3 17
-4 22 -14 26 -55 10 -101 93 -170 245 -204 135 -30 539 -40 1643 -40 1158 0
1772 16 2050 54 61 9 68 12 115 63 38 41 63 58 105 72 263 85 537 339 758 702
30 49 92 165 138 258 46 94 89 172 94 173 20 7 8 -31 -39 -127 -27 -54 -72
-151 -100 -217 -69 -164 -271 -708 -271 -730 0 -16 14 -16 178 -11 97 3 195
11 217 16 58 15 65 3 53 -84 -15 -102 -3 -351 22 -467 63 -299 213 -565 437
-778 160 -152 371 -278 573 -340 115 -36 366 -80 453 -80 35 0 88 4 118 10 30
5 96 16 148 25 750 127 1290 832 1221 1594 -33 362 -174 663 -438 933 -53 54
-93 100 -90 103 2 3 69 12 149 20 220 24 496 78 520 102 11 11 -88 188 -169
303 -35 48 -109 136 -164 195 l-101 106 13 73 c22 128 -14 225 -111 307 -43
36 -62 45 -108 50 -88 11 -611 10 -808 -1 -276 -17 -579 -73 -740 -137 -36
-15 -71 -26 -77 -26 -25 0 -153 44 -184 63 -56 34 -30 47 112 55 68 4 134 12
147 19 28 14 44 74 54 209 7 94 -7 266 -26 325 -12 37 5 32 -237 76 -101 19
-188 38 -192 42 -4 5 -22 56 -40 114 -76 250 -210 546 -420 929 -62 112 -130
251 -152 310 -69 183 -250 601 -261 601 -6 0 -18 -7 -28 -16 -26 -23 -42 -13
-70 43 -32 66 -33 155 -1 200 65 92 275 110 437 38 45 -20 60 -22 101 -14 27
6 89 14 138 18 80 8 93 12 113 35 13 15 25 39 29 54 3 15 30 77 60 137 99 200
136 395 115 608 -6 64 -14 123 -17 131 -7 18 -117 66 -152 66 -15 0 -35 -5
-45 -11z"/>
</g>
</svg>
